<svg xmlns="http://www.w3.org/2000/svg" width="83" height="83">
  <g fill="#FFF">
    <path d="M56.075 54.681c-.714 0-1.444-.051-2.163-.158-6.023-.86-10.05-5.185-12.308-8.511-2.262 3.325-6.289 7.656-12.31 8.514-.716.103-1.444.154-2.163.154-3.745 0-7.259-1.393-9.903-3.924-2.669-2.55-4.143-5.975-4.143-9.625 0-3.655 1.474-7.075 4.147-9.631 2.64-2.53 6.158-3.92 9.905-3.92.714 0 1.44.051 2.156.154 6.021.859 10.048 5.184 12.31 8.51 2.258-3.325 6.285-7.65 12.308-8.51a15.258 15.258 0 0 1 2.158-.154c3.745 0 7.261 1.393 9.903 3.92 2.671 2.556 4.142 5.975 4.142 9.631 0 3.65-1.467 7.074-4.138 9.625-2.644 2.53-6.158 3.925-9.901 3.925m-11.801-13.55c1.175 2.24 4.644 7.83 10.317 8.642.497.068.997.106 1.485.106 5.094 0 9.241-3.923 9.241-8.749s-4.147-8.751-9.245-8.751c-.486 0-.988.035-1.478.106-5.676.811-9.145 6.401-10.32 8.646m-17.135-8.75c-5.103 0-9.25 3.924-9.25 8.751 0 4.825 4.145 8.749 9.243 8.749.488 0 .988-.038 1.485-.106 5.673-.812 9.142-6.399 10.319-8.642-1.175-2.241-4.646-7.835-10.319-8.642a9.862 9.862 0 0 0-1.478-.11"/>
    <path d="M23.267 39.806h8.436v2.719h-8.436zM59.86 39.806h-2.854v-2.86h-2.728v2.86h-2.854v2.718h2.854v2.859h2.728v-2.859h2.854z"/>
    <path d="M41.602 79.744c-21.279 0-38.592-17.312-38.592-38.591S20.322 2.562 41.602 2.562s38.591 17.312 38.591 38.591c-.001 21.279-17.312 38.591-38.591 38.591zm0-75.78c-20.507 0-37.189 16.683-37.189 37.188 0 20.506 16.683 37.189 37.189 37.189S78.79 61.658 78.79 41.152c0-20.505-16.683-37.188-37.188-37.188z"/>
  </g>
</svg>
