<svg width="150" height="100" xmlns="http://www.w3.org/2000/svg">
  <g fill="none" fill-rule="evenodd">
    <path d="M96.1 92.1h18.7c.7 0 1.3-.6 1.3-1.3v-42c0-2.2-1.8-4-4-4H97.4v-6.7h5.6c.7 0 1.3-.6 1.3-1.3 0-.4-.2-.9-.6-1.1l-27-18.2c-.5-.3-1.1-.3-1.5 0l-27 18.2c-.6.4-.8 1.3-.4 1.9.2.4.7.6 1.1.6h5.5v6.7H39.8c-2.2 0-4 1.8-4 4v42c0 .7.6 1.3 1.3 1.3h59v-.1z" stroke="#8C7965" fill="#FFF" fill-rule="nonzero"/>
    <path d="M49.6 54.9h-6.2c-.7 0-1.3.6-1.3 1.3v6.2c0 .7.6 1.3 1.3 1.3h6.2c.7 0 1.3-.6 1.3-1.3v-6.2c.1-.7-.5-1.3-1.3-1.3zM49.6 74.4h-6.2c-.7 0-1.3.6-1.3 1.3v6.2c0 .7.6 1.3 1.3 1.3h6.2c.7 0 1.3-.6 1.3-1.3v-6.2c.1-.7-.5-1.3-1.3-1.3zM102.3 63.8h6.2c.7 0 1.3-.6 1.3-1.3v-6.2c0-.7-.6-1.3-1.3-1.3h-6.2c-.7 0-1.3.6-1.3 1.3v6.2c0 .7.6 1.3 1.3 1.3zM102.3 83.3h6.2c.7 0 1.3-.6 1.3-1.3v-6.2c0-.7-.6-1.3-1.3-1.3h-6.2c-.7 0-1.3.6-1.3 1.3V82c0 .7.6 1.3 1.3 1.3z" stroke="#E75300"/>
    <path d="M84.9 52.9c.8.8 2.1.8 2.9 0 .8-.8.8-2.1 0-2.9-.8-.8-2.1-.8-2.9 0-.8.8-.8 2.1 0 2.9zm.4-1.4l1-1 1 1-1 1-1-1zM64.2 52.9c.8.8 2.1.8 2.9 0 .8-.8.8-2.1 0-2.9-.8-.8-2.1-.8-2.9 0-.8.8-.8 2.1 0 2.9zm.4-1.4l1-1 1 1-1 1-1-1z" fill="#007481" fill-rule="nonzero"/>
    <path d="M78 51.5c0 1.1-.9 2-2 2s-2-.9-2-2h4z" fill="#8C7965" fill-rule="nonzero"/>
    <path d="M54.5 44.8v47.3M97.4 44.8v47.3" stroke="#8C7965"/>
    <path stroke="#EDAA00" d="M67.5 91.7v-18h17.4v18"/>
  </g>
</svg>
