<svg xmlns="http://www.w3.org/2000/svg" width="83" height="83">
  <path fill="#8C7965" d="M32.559 51.244h1.402v30.928h-1.402zM48.712 51.244h1.402v20.44h-1.402z"/>
  <path fill="#EDAA00" d="M60.058 43.194V20.566c0-10.157-8.217-18.42-18.317-18.42-10.102 0-18.319 8.264-18.319 18.42v22.627h-3.685v8.751h44.005v-8.751h-3.684zM24.823 20.566c0-9.384 7.589-17.018 16.917-17.018 9.327 0 16.915 7.634 16.915 17.018v22.627H24.823V20.566zm37.516 29.977h-41.2v-5.948h41.2v5.948z"/>
  <path fill="#E75300" d="M42.657 31.428c.51-.507.505-1.33 0-1.845a1.297 1.297 0 0 0-1.838 0 1.313 1.313 0 0 0 0 1.845 1.286 1.286 0 0 0 1.838 0z"/>
  <path fill="#8C7965" d="M31.76 28.663a2.579 2.579 0 0 0-3.672 0 2.63 2.63 0 0 0 0 3.695 2.579 2.579 0 0 0 3.672 0 2.616 2.616 0 0 0 0-3.695zm-1.832 3.154l-1.302-1.306 1.302-1.308 1.299 1.308-1.299 1.306zM55.389 28.663a2.583 2.583 0 0 0-3.676 0 2.628 2.628 0 0 0 0 3.695 2.583 2.583 0 0 0 3.676 0 2.622 2.622 0 0 0 0-3.695zm-1.837 3.154l-1.3-1.306 1.3-1.308 1.3 1.308-1.3 1.306z"/>
</svg>
