<svg width="177" height="119" xmlns="http://www.w3.org/2000/svg" xmlns:xlink="http://www.w3.org/1999/xlink" viewBox="0 0 177 119">
  <defs>
    <circle id="a" cx="15.744" cy="15.962" r="5.834"/>
  </defs>
  <g fill="none" fill-rule="evenodd">
    <g fill-rule="nonzero" transform="translate(0 31)">
      <path d="M138.7.581H23.826a2.905 2.905 0 0 0-2.897 2.895v76.556h120.664V3.476A2.903 2.903 0 0 0 138.7.581z" fill="#2D363B"/>
      <path fill="#FFF" d="M26.299 5.569h110.048v70.709H26.299z"/>
      <path d="M153.87 87.179H8.452c-.433 0-.864-.076-1.271-.226L.556 84.524h161.209l-6.625 2.429a3.696 3.696 0 0 1-1.27.226z" fill="#BCC7C7"/>
      <circle fill="#868789" cx="81.15" cy="3.569" r="1"/>
      <path fill="#BCC7C7" d="M68.049 80.02h26.124v2.653H68.049z"/>
      <path d="M92.101 80.02v.234a1.944 1.944 0 0 1-1.938 1.938H72.076a1.941 1.941 0 0 1-1.936-1.936v-.236H.557v4.503h161.209V80.02H92.101z" fill="#EDF1F1"/>
    </g>
    <g transform="translate(44 57)">
      <path d="M46.539 17.635c-5.385.001-9.776-4.255-9.992-9.588a2.375 2.375 0 0 1 2.375-2.377c1.313 0 2.369 1.079 2.369 2.392v-.015c-.215 5.333-4.606 9.589-9.992 9.588" stroke="#E55525" stroke-width=".448"/>
      <g fill-rule="nonzero">
        <path d="M67.799 21.406c-.29 0-.586-.021-.877-.064-2.443-.349-4.077-2.103-4.993-3.453-.918 1.349-2.551 3.106-4.994 3.454-.29.042-.586.062-.877.062a5.77 5.77 0 0 1-4.017-1.592 5.362 5.362 0 0 1-1.681-3.904c0-1.483.598-2.87 1.682-3.907 1.071-1.026 2.498-1.59 4.018-1.59.29 0 .584.021.875.062 2.442.348 4.076 2.103 4.994 3.452.916-1.349 2.55-3.103 4.993-3.452.292-.042.586-.062.875-.062 1.519 0 2.945.565 4.017 1.59a5.368 5.368 0 0 1 1.68 3.907c0 1.481-.595 2.87-1.679 3.904a5.765 5.765 0 0 1-4.016 1.593m-4.787-5.496c.477.909 1.884 3.176 4.185 3.506.202.028.404.043.602.043 2.066 0 3.749-1.591 3.749-3.549s-1.682-3.55-3.75-3.55c-.197 0-.401.014-.6.043-2.302.329-3.71 2.596-4.186 3.507m-6.951-3.55c-2.07 0-3.752 1.592-3.752 3.55 0 1.957 1.681 3.549 3.749 3.549.198 0 .401-.015.602-.043 2.301-.329 3.708-2.596 4.186-3.506-.477-.909-1.885-3.178-4.186-3.506a4.184 4.184 0 0 0-.599-.044" fill="#04969A"/>
        <path fill="#04969A" d="M54.49 15.372h3.422v1.103H54.49zM69.334 15.372h-1.158v-1.16H67.07v1.16h-1.158v1.103h1.158v1.16h1.106v-1.16h1.158z"/>
        <path d="M61.928 31.573c-8.632 0-15.655-7.023-15.655-15.655S53.296.263 61.928.263s15.655 7.023 15.655 15.655c-.001 8.633-7.023 15.655-15.655 15.655zm0-30.74c-8.319 0-15.086 6.768-15.086 15.085 0 8.318 6.768 15.086 15.086 15.086 8.318 0 15.085-6.768 15.085-15.086 0-8.317-6.767-15.085-15.085-15.085z" fill="#F0C419"/>
      </g>
      <g fill-rule="nonzero">
        <path d="M15.783.102s9.259-.417 14.167 8.889H14.996s-2.824-.093-5.232 3.334c-.694 1.435-1.435 2.917-.602 5.833C7.958 16.121 2.773 7.093 2.773 7.093S6.431.473 15.783.102z" fill="#E5322A"/>
        <path d="M29.467 23.729s-4.27 8.226-14.783 7.822l7.479-12.95s1.493-2.399-.27-6.197c-.896-1.319-1.808-2.702-4.751-3.439 2.367-.023 12.777.001 12.777.001s3.905 6.48-.452 14.763z" fill="#FCD900"/>
        <path d="M2.164 23.792s-4.989-7.812.618-16.714l7.474 12.952s1.331 2.492 5.502 2.865c1.59-.116 3.244-.215 5.353-2.394-1.163 2.061-6.391 11.064-6.391 11.064s-7.561.142-12.556-7.773z" fill="#65B44A"/>
        <path d="M14.684 31.628l2.103-8.778s2.313-.181 4.251-2.307c-1.202 2.116-6.354 11.085-6.354 11.085z" fill="#61AB47"/>
        <circle fill="#FFF" cx="15.744" cy="15.962" r="7.006"/>
        <path d="M29.92 8.967l-8.662 2.54s-1.306-1.917-4.115-2.541c2.434-.009 12.777.001 12.777.001z" fill="#F0CE16"/>
        <path d="M8.993 17.843c-1.217-2.108-6.22-10.75-6.22-10.75l6.416 6.347s-.659 1.356-.409 3.294l.213 1.109z" fill="#D93227"/>
      </g>
      <use fill-opacity=".8" fill="#146DB3" xlink:href="#a"/>
    </g>
    <g transform="translate(117)" fill-rule="nonzero">
      <circle fill="#F0C419" cx="29.939" cy="30.017" r="29.781"/>
      <g fill="#FFF">
        <path d="M14.176 16.666v.893c.986.031 1.77.234 2.35.532l-.361 1.033c-.469-.345-1.221-.579-1.988-.626v3.178c1.316.548 2.756 1.174 2.756 2.834 0 1.315-1.189 2.238-2.756 2.426v.861h-.75v-.83c-1.158-.016-2.145-.313-2.756-.689l.391-1.018c.549.392 1.488.752 2.365.783v-3.538c-1.27-.533-2.568-1.112-2.568-2.583 0-1.284 1.08-2.176 2.568-2.333v-.924h.749v.001zm-.75 4.681v-2.802c-.846.125-1.395.563-1.395 1.284.001.735.596 1.142 1.395 1.518zm.75 1.487v3.163c.861-.141 1.566-.595 1.566-1.378.001-.893-.705-1.378-1.566-1.785zM27.059 21.863c0 2.505-.689 5.511-3.961 5.511-2.584 0-3.836-1.8-3.836-5.041 0-2.912.877-5.433 3.945-5.433 2.756 0 3.852 1.926 3.852 4.963zm-1.283.173c0-1.926-.283-4.055-2.678-4.055-2.066 0-2.553 2.02-2.553 4.008 0 2.16.299 4.32 2.646 4.32 2.177 0 2.585-2.238 2.585-4.273zM30.391 25.84c.469 0 .83.235.83.767 0 .517-.33.767-.83.767-.518 0-.814-.25-.814-.767-.001-.501.312-.767.814-.767zM36.996 16.9c2.613 0 3.553 1.973 3.553 4.853 0 3.522-2.066 5.605-5.416 5.605-.344 0-.705-.016-1.08-.063v-1.127c.359.062.736.094 1.08.094 2.176 0 3.977-1.189 4.117-3.851-.721.47-1.58.814-2.646.814-1.674 0-3.006-.955-3.006-2.865 0-2.066 1.238-3.46 3.398-3.46zm.016 5.245c.924 0 1.754-.392 2.27-.814-.031-1.816-.484-3.366-2.41-3.366-1.426 0-2.004 1.065-2.004 2.192 0 1.393.671 1.988 2.144 1.988zM46.276 16.9c2.615 0 3.555 1.973 3.555 4.853 0 3.522-2.066 5.605-5.416 5.605-.346 0-.705-.016-1.082-.063v-1.127c.361.062.736.094 1.082.094 2.176 0 3.975-1.189 4.117-3.851-.721.47-1.582.814-2.646.814-1.676 0-3.006-.955-3.006-2.865-.001-2.066 1.236-3.46 3.396-3.46zm.015 5.245a3.71 3.71 0 0 0 2.271-.814c-.031-1.816-.486-3.366-2.412-3.366-1.424 0-2.004 1.065-2.004 2.192.001 1.393.675 1.988 2.145 1.988zM15.795 34.953l-.734 2.039-1.785 4.433h-1.078l-1.785-4.217-.822-2.115v6.333H8.64v-8.232h1.166l1.949 4.623 1.002 2.622.963-2.571 1.898-4.674h1.141v8.232h-.963zM26.729 37.321c0 2.457-1.482 4.23-3.799 4.23-2.432 0-3.711-1.609-3.711-4.205 0-2.482 1.406-4.268 3.773-4.268 2.407 0 3.737 1.546 3.737 4.243zm-1.102 0c0-2.14-.785-3.356-2.635-3.356-1.861 0-2.684 1.229-2.684 3.381 0 2.052.721 3.318 2.621 3.318 1.825.001 2.698-1.329 2.698-3.343zM30.164 41.424h-.988v-8.232h1.078l3.291 4.724 1.293 1.925-.014-1.596v-5.054h.977v8.232h-1.027l-3.305-4.749-1.316-1.976.012 1.824v4.902h-.001zM43.909 34.091h-2.557v7.333h-1.027v-7.333h-2.57v-.899h6.154v.899zM51.979 33.192v8.232h-1.025V37.65H46.89v3.774h-1.027v-8.232h1.027v3.534h4.064v-3.534z"/>
      </g>
    </g>
  </g>
</svg>
