<svg id="Layer_1" xmlns="http://www.w3.org/2000/svg" viewBox="0 0 83 83">
  <style>
    .st3{fill:#95989d}
  </style>
  <path d="M16.1 35.6s-8-1.6-13.6 8.5c-3.9 10.7 3.7 21.1 13.6 21.1 7.4.2 51.1 0 51.1 0S79 65 81.4 52.4C82.9 39.5 70 35.5 70 35.5c-.1-.8-1.8-11.4-11.6-16-7.4-3.4-16.4-2-22.7 3.6-.6-.2-7.4-2.5-13.5 1.7-5.4 3.9-6 10-6.1 10.8z" fill="#fff"/>
  <path d="M32.6 66.1c-7.6 0-14.1 0-16.5-.1-4.8 0-9.5-2.5-12.4-6.6C.5 54.9-.1 49.3 1.8 43.9v-.1c4.8-8.7 11.4-9.1 13.6-9 .3-2.1 1.6-7.2 6.3-10.5 5.7-4 12-2.5 13.7-2 6.6-5.6 15.6-7 23.2-3.5 9.3 4.3 11.6 13.7 12 16.1 2.3.9 12.8 5.6 11.4 17.5C79.7 65.6 67.3 66 67.2 66c-.3 0-19.6.1-34.6.1zM3.2 44.4c-1.7 4.9-1.1 10 1.7 14.1 2.6 3.7 6.8 6 11.2 6 7.3.2 50.6 0 51.1 0 .4 0 11.3-.4 13.5-12.2 1.4-12-10.7-15.9-10.8-16-.3-.1-.5-.3-.5-.6-.1-.4-1.7-11-11.2-15.4-7.2-3.3-15.8-2-21.9 3.5-.2.2-.5.2-.8.1-.7-.3-7.1-2.4-12.8 1.7-5 3.5-5.7 9.1-5.8 10.2 0 .2-.1.4-.3.5-.2.1-.4.2-.6.1-.3-.1-7.6-1.4-12.8 8z" fill="#00929f"/>
  <path d="M44.4 47.7c0 1.5-1.2 2.7-2.7 2.7S39 49.2 39 47.7h5.4z" fill="#f47b20"/>
  <circle class="st3" cx="54.4" cy="47.7" r="1.7"/>
  <g>
    <circle class="st3" cx="28.2" cy="47.7" r="1.7"/>
  </g>
</svg>
