<svg xmlns="http://www.w3.org/2000/svg" width="83" height="83">
  <path fill="#8C7965" d="M62.998 18.786h-1.425v-4.199h-6.229v4.199H44.963v-4.199h-6.229v4.199H28.353v-4.199h-6.229v4.199h-1.419c-3.367 0-6.106 2.737-6.106 6.101v29.867a6.112 6.112 0 0 0 6.106 6.104h1.419v4.308h6.229v-4.308h10.381v4.308h6.229v-4.308h10.381v4.308h6.229v-4.308h1.425a6.11 6.11 0 0 0 6.101-6.104V24.887a6.109 6.109 0 0 0-6.101-6.101zm-6.252-2.798h3.425v2.798h-3.425v-2.798zm-16.61 0h3.425v2.798h-3.425v-2.798zm-16.611 0h3.425v2.798h-3.425v-2.798zm3.425 47.776h-3.425v-2.907h3.425v2.907zm16.611 0h-3.425v-2.907h3.425v2.907zm16.61 0h-3.425v-2.907h3.425v2.907zm7.525-9.011a4.705 4.705 0 0 1-4.698 4.702H20.704A4.708 4.708 0 0 1 16 54.753V24.887a4.707 4.707 0 0 1 4.704-4.699h42.294a4.704 4.704 0 0 1 4.698 4.699v29.866z"/>
  <path fill="#EDAA00" d="M52.366 46.875l2.599-2.599 2.598 2.599-2.598 2.598zM26.134 46.875l2.598-2.6 2.6 2.598-2.598 2.6z"/>
  <path fill="#007481" d="M40.554 46.873a1.292 1.292 0 0 1 1.299-1.298c.717 0 1.295.578 1.295 1.298 0 .72-.584 1.298-1.295 1.298a1.29 1.29 0 0 1-1.299-1.298z"/>
</svg>
