<svg xmlns="http://www.w3.org/2000/svg" viewBox="0 0 217 138">
  <style>
    .st0{fill:#fff}.st6{fill:#bdc7c7}.st31{fill:#00959a}
  </style>
  <g id="Artwork">
    <path d="M172 20.5H42.3c-1.8 0-3.3 1.5-3.3 3.3v86.4h136.2V23.8c0-1.8-1.4-3.3-3.2-3.3z" fill="#2c353a"/>
    <path class="st0" d="M45.1 26.1h124.2v79.8H45.1z"/>
    <path class="st6" d="M189.1 118.3H24.9c-.5 0-1-.1-1.4-.3l-7.5-2.7h182l-7.5 2.7c-.4.2-.9.3-1.4.3z"/>
    <circle cx="107" cy="23.9" r=".6" fill="#868789"/>
    <path class="st6" d="M92.2 110.2h29.5v3H92.2z"/>
    <path d="M119.4 110.2v.3c0 1.2-1 2.2-2.2 2.2H96.7c-1.2 0-2.2-1-2.2-2.2v-.3H16v5.1h182v-5.1h-78.6z" fill="#ecf1f1"/>
    <g>
      <path d="M117.6 69.1c-6.1 0-11-4.8-11.3-10.8 0-1.5 1.2-2.7 2.7-2.7 1.5 0 2.7 1.2 2.7 2.7-.2 6-5.2 10.8-11.3 10.8" fill="none" stroke="#e75300" stroke-width="1.49" stroke-miterlimit="10"/>
      <path class="st31" d="M141.6 73.4c-.3 0-.7 0-1-.1-2.8-.4-4.6-2.4-5.6-3.9-1 1.5-2.9 3.5-5.6 3.9-.3 0-.7.1-1 .1-1.7 0-3.3-.6-4.5-1.8-1.2-1.2-1.9-2.7-1.9-4.4 0-1.7.7-3.2 1.9-4.4 1.2-1.2 2.8-1.8 4.5-1.8.3 0 .7 0 1 .1 2.8.4 4.6 2.4 5.6 3.9 1-1.5 2.9-3.5 5.6-3.9.3 0 .7-.1 1-.1 1.7 0 3.3.6 4.5 1.8 1.2 1.2 1.9 2.7 1.9 4.4 0 1.7-.7 3.2-1.9 4.4-1.2 1.1-2.8 1.8-4.5 1.8m-5.4-6.2c.5 1 2.1 3.6 4.7 4h.7c2.3 0 4.2-1.8 4.2-4s-1.9-4-4.2-4h-.7c-2.6.4-4.2 2.9-4.7 4m-7.9-4c-2.3 0-4.2 1.8-4.2 4s1.9 4 4.2 4h.7c2.6-.4 4.2-2.9 4.7-4-.5-1-2.1-3.6-4.7-4h-.7"/>
      <path class="st31" d="M126.6 66.6h3.9v1.2h-3.9zM143.3 66.6H142v-1.4h-1.2v1.4h-1.3v1.2h1.3v1.3h1.2v-1.3h1.3z"/>
      <path d="M135 84.8c-9.7 0-17.7-7.9-17.7-17.7s7.9-17.7 17.7-17.7 17.7 7.9 17.7 17.7c-.1 9.8-8 17.7-17.7 17.7zm0-34.7c-9.4 0-17 7.6-17 17s7.6 17 17 17 17-7.6 17-17c0-9.3-7.6-17-17-17z" fill="#f1c40f"/>
    </g>
    <path d="M97.3 84.6H69.9c-1.9 0-3.4-1.5-3.4-3.4V53.3c0-1.9 1.5-3.4 3.4-3.4h27.4c1.9 0 3.4 1.5 3.4 3.4v27.8c.1 1.9-1.4 3.5-3.4 3.5z" fill="#008285"/>
    <g>
      <path class="st0" d="M83.1 72.4c-4 .4-8.2-.2-8.8-3.3-.3-1.5.4-3.2 1.3-4.2v-.5c-1.7 1.5-2.6 3.3-2.1 5.5.7 2.8 4.2 4.4 9.7 3.9 2.2-.2 5-.9 7-2v-1.5c-1.7 1-4.6 1.9-7.1 2.1zm10.6-8.1c-.9-4.6-9.9-4.9-15.8-1.4v.4c5.8-3 14-3 14.8 1.3.3 1.4-.5 2.9-2 3.7v1.1c1.7-.6 3.5-2.6 3-5.1z"/>
      <path class="st0" d="M90 63.7h-1v4.7c0 .5.3 1 1 1.1v-5.8zM77.5 65.4h-1.1v3.1c0 .5.3 1 1.1 1.1v-4.2zM76.5 63.8h1v1h-1zM83.8 69.5c-.8 0-1.2-.6-1.2-1.2v-4.1h1v1.1h.8v.8h-.8v2c0 .2.1.4.4.4h.4v.9l-.6.1M85.7 67.7c0 .5.3.9.9.9.5 0 .7-.1 1-.4l.6.6c-.4.4-.8.7-1.6.7-1 0-1.9-.5-1.9-2.1 0-1.4.8-2.1 1.9-2.1 1.1 0 1.7.9 1.7 2.1v.4l-2.6-.1m.9-1.5c-.4 0-.6.2-.7.4-.1.1-.1.3-.1.4h1.6c-.1-.4-.3-.8-.8-.8zM80.3 66.2c.3 0 .4.2.4.4v2.9h1v-2.9c0-.6-.3-1.2-1.2-1.2h-2.1v4.1h1v-3.3h.9zM91.1 64.5c-.2 0-.4-.2-.4-.4s.2-.4.4-.4.4.2.4.4-.1.4-.4.4zm0-.8c-.2 0-.3.2-.3.3 0 .2.2.3.3.3s.3-.2.3-.3c.1-.1-.1-.3-.3-.3zm.2.6c-.1 0-.1 0 0 0l-.2-.2v.2H91v-.5h.1c.1 0 .2 0 .2.2 0 .1 0 .1-.1.1l.1.2zm-.1-.3c0-.1 0-.1 0 0l-.1-.1v.1h.1z"/>
    </g>
  </g>
</svg>
