<svg xmlns="http://www.w3.org/2000/svg" width="83" height="83">
  <path fill="#FFFFFF" d="M62.118 58.445H21.654c-3.208 0-5.821-2.602-5.849-5.811L10.804 18.14c0-3.232 2.624-5.861 5.85-5.861h50.465c3.226 0 5.85 2.629 5.85 5.861l-.008.101-4.993 34.393c-.028 3.209-2.642 5.811-5.85 5.811zM12.206 18.092l5 34.49c0 2.46 1.995 4.462 4.447 4.462h40.465c2.452 0 4.447-2.001 4.447-4.462l.008-.101 4.992-34.39c-.026-2.437-2.011-4.411-4.447-4.411H16.654c-2.437.001-4.421 1.975-4.448 4.412zM26.973 76.701c-4.143 0-7.514-3.37-7.514-7.513s3.371-7.513 7.514-7.513 7.514 3.37 7.514 7.513-3.371 7.513-7.514 7.513zm0-13.625c-3.37 0-6.111 2.742-6.111 6.112s2.741 6.112 6.111 6.112 6.111-2.742 6.111-6.112-2.741-6.112-6.111-6.112z"/>
  <path fill="#FFFFFF" d="M28.807 67.349a2.6 2.6 0 0 0-3.673 0 2.605 2.605 0 0 0 0 3.673 2.59 2.59 0 0 0 3.673 0 2.59 2.59 0 0 0 0-3.673zm-1.834 3.142l-1.3-1.303 1.3-1.298 1.3 1.298-1.3 1.303z"/>
  <path fill="#FFFFFF" d="M56.8 76.701c-4.143 0-7.514-3.37-7.514-7.513s3.371-7.513 7.514-7.513 7.514 3.37 7.514 7.513-3.371 7.513-7.514 7.513zm0-13.625c-3.37 0-6.111 2.742-6.111 6.112S53.43 75.3 56.8 75.3s6.111-2.742 6.111-6.112-2.741-6.112-6.111-6.112z"/>
  <path fill="#FFFFFF" d="M58.635 67.349a2.602 2.602 0 0 0-3.675 0 2.605 2.605 0 0 0 0 3.673 2.593 2.593 0 0 0 3.675 0 2.593 2.593 0 0 0 0-3.673zm-1.836 3.142L55.5 69.188l1.299-1.298 1.302 1.298-1.302 1.303z"/>
  <path fill="#FFFFFF" d="M10.05 13.009a6.284 6.284 0 0 0-6.3-6.044V5.563a7.682 7.682 0 0 1 7.7 7.389l-.562.023.563-.004v.009l-1.401.029z"/>
  <path fill="#FFFFFF" d="M53.254 37.197a2.593 2.593 0 0 0 3.675 0 2.6 2.6 0 0 0 0-3.674 2.602 2.602 0 0 0-3.675 0 2.588 2.588 0 0 0 0 3.674zm.534-1.834l1.302-1.295 1.299 1.295-1.299 1.303-1.302-1.303zM26.849 37.197a2.593 2.593 0 0 0 3.675 0 2.608 2.608 0 0 0 0-3.674 2.602 2.602 0 0 0-3.675 0 2.588 2.588 0 0 0 0 3.674zm.534-1.834l1.299-1.295 1.298 1.295-1.298 1.303-1.299-1.303z"/>
  <path fill="#FFFFFF" d="M44.482 35.366c.008 1.434-1.159 2.59-2.592 2.595a2.597 2.597 0 0 1-2.599-2.598l5.191.003z"/>
</svg>
