<svg xmlns="http://www.w3.org/2000/svg" width="113" height="91">
  <path fill="#8C7965" d="M84.195 52.467a3.125 3.125 0 0 0 4.429 0c1.22-1.214 1.22-3.197 0-4.427a3.137 3.137 0 0 0-4.429 0 3.119 3.119 0 0 0 0 4.427zm.643-2.21l1.569-1.56 1.565 1.56-1.565 1.57-1.569-1.57zM52.375 52.467a3.125 3.125 0 0 0 4.429 0c1.216-1.214 1.216-3.197 0-4.427a3.137 3.137 0 0 0-4.429 0 3.119 3.119 0 0 0 0 4.427zm.643-2.21l1.565-1.56 1.564 1.56-1.564 1.57-1.565-1.57z"/>
  <path fill="#E75300" d="M73.624 50.26c.01 1.729-1.397 3.121-3.124 3.127a3.13 3.13 0 0 1-3.132-3.131l6.256.004z"/>
  <path fill="none" stroke="#03979C" stroke-width="1.559" stroke-miterlimit="10" d="M16.8 42.761v36.114l.006.126.02.121.028.118.041.119.055.112.062.106.074.099.083.093.093.084.098.073.105.061.113.054.118.042.118.029.122.019.125.005h80.717l.124-.005.122-.019.119-.029.119-.042.112-.054.105-.061.099-.073.093-.084.084-.093.073-.099.061-.106.053-.112.042-.119.029-.118.02-.121.006-.126v-1.94l3.201-3.201V32.437l-3.201-3.201V14.829l-1.921-1.92H18.061v-.004l-.125.007-.122.02-.118.028-.118.042-.113.054-.105.06-.098.075-.093.083-.083.092-.074.099-.062.106-.055.112-.041.119-.028.119-.02.122-.006.123v10.585"/>
  <path fill="none" stroke="#9FA0A2" stroke-width="1.949" stroke-miterlimit="10" d="M10.823 24.751h20.762c.89 0 1.612.722 1.612 1.612v14.786c0 .89-.722 1.612-1.612 1.612H10.823c-.89 0-1.612-.722-1.612-1.612V26.363c0-.89.722-1.612 1.612-1.612z"/>
  <path fill="#EDAA00" d="M101.182 33.842a2.158 2.158 0 0 0-3.049 0 2.161 2.161 0 0 0 0 3.049 2.15 2.15 0 0 0 3.049 0 2.15 2.15 0 0 0 0-3.049zm-1.522 2.609l-1.079-1.082 1.079-1.077 1.079 1.077-1.079 1.082zM101.182 68.949a2.158 2.158 0 0 0-3.049 0 2.161 2.161 0 0 0 0 3.049 2.15 2.15 0 0 0 3.049 0 2.15 2.15 0 0 0 0-3.049zm-1.522 2.609l-1.079-1.082 1.079-1.077 1.079 1.077-1.079 1.082zM36.874 75.002a2.158 2.158 0 0 0-3.049 0 2.161 2.161 0 0 0 0 3.049 2.15 2.15 0 0 0 3.049 0 2.15 2.15 0 0 0 0-3.049zm-1.522 2.609l-1.079-1.082 1.079-1.077 1.079 1.077-1.079 1.082z"/>
</svg>
